<?xml version="1.0" encoding="utf-8"?>
<svg width="1024px" height="1024px" viewBox="0 0 1024 1024" version="1.1" id="svg1482" xmlns="http://www.w3.org/2000/svg" xmlns:bx="https://boxy-svg.com">
  <defs id="defs1476">
    <bx:guide x="223.827" y="276.025" angle="90"/>
  </defs>
  <g id="layer1" transform="matrix(3.409774, 0, 0, 3.409774, -405.606537, 402.30835)">
    <title>Kitten</title>
    <path style="display: inline; opacity: 1; fill: rgb(228, 226, 222); fill-opacity: 1; stroke: none; stroke-width: 5; stroke-linecap: round; stroke-linejoin: round; stroke-miterlimit: 4; stroke-dasharray: none; stroke-dashoffset: 10.0157; stroke-opacity: 1; paint-order: normal;" d="M 267.821 142.541 C 360.832 142.541 391.84 47.19 391.84 43.619 C 387.836 41.764 380.497 36.264 379.571 27.459 C 382.658 -19.48 369.06 -77.146 358.535 -80.095 C 358.001 -80.244 357.385 -80.321 356.692 -80.329 C 343.666 -80.483 304.04 -56.443 290.493 -39.358 C 275.014 -41.876 259.558 -41.778 245.15 -39.358 C 231.602 -56.443 191.976 -80.483 178.95 -80.329 C 178.257 -80.321 177.641 -80.244 177.107 -80.095 C 166.582 -77.146 152.984 -19.48 156.071 27.459 C 155.17 36.028 147.876 41.805 143.802 43.619 C 143.802 46.325 174.81 142.541 267.821 142.541 Z" id="path1319">
      <title>Head</title>
    </path>
    <path style="display: inline; opacity: 1; fill: rgb(50, 50, 50); fill-opacity: 1; fill-rule: nonzero; stroke: none; stroke-width: 93.2963; stroke-linecap: round; stroke-linejoin: round; stroke-miterlimit: 4; stroke-dasharray: none; stroke-dashoffset: 0; stroke-opacity: 1; paint-order: normal;" d="m 195.43762,52.815949 c -1.67281,11.949078 4.47119,22.65883 13.72352,23.920862 9.25277,1.262164 18.11034,-7.40155 19.783,-19.350835 1.67261,-11.9493 -4.47291,-22.65915 -13.72549,-23.920862 -0.97218,-0.129993 -1.95138,-0.151926 -2.89141,-0.07345 -8.28585,0.69172 -15.41565,8.893909 -16.88962,19.424285 z M 320.42344,33.469067 c -9.25257,1.261731 -15.39731,11.971562 -13.7245,23.920862 1.67261,11.949319 10.52924,20.612999 19.78202,19.35084 9.25233,-1.262032 15.39632,-11.971789 13.72352,-23.920867 -1.47398,-10.530357 -8.60471,-18.730747 -16.89056,-19.424777 -0.97769,-0.07869 -1.95508,-0.05172 -2.89048,0.07394 z M 132.41176,54.002352 c 13.02535,1.782635 25.92518,5.35065 40.13059,11.497573 2.27456,0.985242 3.75242,-2.426678 1.4779,-3.411919 -14.4652,-6.259309 -27.68835,-10.356144 -41.22533,-11.778936 -2.2783,-0.239463 -2.58677,3.391697 -0.38316,3.693282 z M 405.4755,50.31024 c -13.60479,1.397796 -26.82543,5.519622 -41.29064,11.778936 -2.34049,0.957924 -0.82305,4.462278 1.47693,3.410956 14.2054,-6.146924 27.09599,-9.811659 40.13442,-11.497574 2.75758,-0.356563 2.53618,-3.98584 -0.32071,-3.692318 z m -38.76793,25.403461 c -2.51553,0.233455 -2.14653,3.953547 0.36683,3.698086 15.8052,-1.606461 34.06221,-1.027486 49.92268,2.035816 2.51557,0.485862 3.21571,-3.247245 0.68563,-3.651028 -17.81982,-2.843944 -34.40997,-3.620211 -50.97514,-2.082874 z m -246.18614,2.082854 c -2.51366,0.404398 -1.79853,4.191215 0.68951,3.651028 15.87433,-2.99229 34.1103,-3.599708 49.91977,-2.035816 2.50889,0.297991 2.88537,-3.497406 0.36684,-3.698086 -17.1482,-1.496198 -35.24487,-0.769442 -50.97612,2.082874 z" id="path1321">
      <title>Eyes and whiskers</title>
    </path>
    <path id="path1323" d="m 212.4932,39.545027 c -4.4621,0.469029 -7.69903,4.466259 -7.23001,8.928392 0.46903,4.462152 4.46619,7.699309 8.92847,7.230372 4.4621,-0.469047 7.69922,-4.466574 7.23019,-8.928726 -0.46903,-4.462134 -4.46656,-7.698975 -8.92865,-7.230038 z m 110.65542,0.0037 c -4.4621,-0.468936 -8.45963,2.767942 -8.92866,7.230057 -0.46903,4.46217 2.76828,8.459679 7.23038,8.928727 4.46209,0.468955 8.45962,-2.768184 8.92865,-7.230354 0.46903,-4.462115 -2.76828,-8.459363 -7.23037,-8.92843 z" style="display: inline; opacity: 1; fill: rgb(255, 255, 255); fill-opacity: 1; fill-rule: nonzero; stroke: none; stroke-width: 93.2963; stroke-linecap: round; stroke-linejoin: round; stroke-miterlimit: 4; stroke-dasharray: none; stroke-dashoffset: 0; stroke-opacity: 1; paint-order: normal;">
      <title>Eye lights</title>
    </path>
    <path style="display:inline;fill:#f9a6af;fill-opacity:1;stroke:none;stroke-width:10.09225178;stroke-linecap:butt;stroke-linejoin:miter;stroke-miterlimit:4;stroke-dasharray:none;stroke-opacity:1" d="m 179.48628,-55.450817 c -0.3278,0.01561 -0.64185,0.07781 -0.9401,0.189174 -6.82174,2.547245 -12.67327,37.437312 -10.01296,60.4676429 8.6711,-11.5027984 20.05342,-21.3437219 33.22694,-28.9710379 -4.38758,-14.690538 -15.5536,-31.398793 -21.94162,-31.685779 -0.1115,-0.005 -0.22299,-0.0052 -0.33226,0 z m 176.33736,0 c -6.38801,0.286986 -17.55385,16.995241 -21.94161,31.685779 13.1737,7.627316 24.55584,17.4682395 33.22693,28.9710379 2.66031,-23.0303309 -3.19122,-57.9203979 -10.01296,-60.4676429 -0.39767,-0.148476 -0.82321,-0.209383 -1.27236,-0.189174 z m -88.15186,114.27917 c -6.06226,0.01879 -11.97864,2.717224 -11.97864,4.861955 0,2.144711 6.65189,9.900391 11.97864,9.881398 5.32657,-0.01894 12.27634,-8.11065 12.27634,-10.032163 0,-1.921517 -6.21427,-4.730016 -12.27634,-4.71119 z" id="path1325">
      <title>Ears and nose</title>
    </path>
  </g>
</svg>